<svg width="45" height="42" viewBox="0 0 45 42" fill="none" xmlns="http://www.w3.org/2000/svg">
<path d="M7.40622 41.1013C7.42213 41.1017 7.4378 41.1048 7.45231 41.1105C7.46683 41.1162 7.47989 41.1244 7.49074 41.1345L7.70885 41.343C7.53955 41.5117 7.33029 41.6467 7.0954 41.7386C6.82033 41.839 6.52388 41.8874 6.22565 41.8808C5.94542 41.8858 5.66699 41.8406 5.40771 41.7481C5.17383 41.6631 4.9637 41.5355 4.79153 41.3738C4.61582 41.2061 4.48048 41.0095 4.39347 40.7957C4.29818 40.5573 4.25113 40.3064 4.25442 40.0541C4.25055 39.8002 4.30141 39.5478 4.40437 39.3102C4.49962 39.095 4.64329 38.8984 4.82698 38.7321C5.01315 38.5689 5.23586 38.4407 5.48133 38.3554C5.74986 38.2649 6.03582 38.2199 6.32381 38.2227C6.59132 38.217 6.85741 38.2581 7.1063 38.3435C7.32224 38.4249 7.52052 38.5379 7.6925 38.6776L7.50982 38.9003C7.4972 38.916 7.48152 38.9296 7.46347 38.9406C7.44192 38.9534 7.41587 38.9593 7.38986 38.9571C7.36156 38.9554 7.33428 38.9473 7.31079 38.9335L7.21264 38.8742L7.07631 38.7984C7.01746 38.7703 6.95643 38.7457 6.89364 38.725C6.81277 38.6998 6.72983 38.68 6.64553 38.6657C6.53854 38.6486 6.42986 38.6407 6.32108 38.642C6.1137 38.6398 5.9079 38.6736 5.7158 38.7415C5.53666 38.8045 5.37495 38.8998 5.2414 39.0211C5.10545 39.1502 5.00068 39.3016 4.93331 39.4665C4.85652 39.6551 4.81868 39.8541 4.82152 40.0541C4.81825 40.2573 4.85609 40.4594 4.93331 40.6511C4.99984 40.8146 5.10266 40.9652 5.23595 41.0942C5.36082 41.2145 5.51561 41.3085 5.68854 41.369C5.86651 41.4331 6.05754 41.4654 6.25019 41.4638C6.36148 41.4653 6.47272 41.4589 6.58282 41.4448C6.76261 41.4258 6.93507 41.3715 7.08722 41.2861C7.16353 41.2424 7.23557 41.1932 7.30261 41.1392C7.33064 41.116 7.3675 41.1025 7.40622 41.1013Z" fill="#AFB1B8"/>
<path d="M13.7043 40.0537C13.7077 40.3051 13.6578 40.5548 13.5571 40.7905C13.4682 41.0042 13.3283 41.1992 13.1464 41.3625C12.9645 41.5259 12.7449 41.6539 12.502 41.7381C11.9682 41.915 11.3781 41.915 10.8443 41.7381C10.6029 41.6526 10.3847 41.5243 10.2036 41.3614C10.0218 41.1951 9.88083 40.9984 9.78915 40.7834C9.59274 40.3062 9.59274 39.7846 9.78915 39.3074C9.88216 39.0922 10.023 38.895 10.2036 38.727C10.3862 38.5693 10.6043 38.4459 10.8443 38.3646C11.3774 38.1845 11.9688 38.1845 12.502 38.3646C12.7442 38.45 12.9633 38.5783 13.1454 38.7412C13.3249 38.9059 13.4648 39.1 13.5571 39.3122C13.6581 39.5494 13.708 39.8008 13.7043 40.0537ZM13.1318 40.0537C13.1361 39.8526 13.101 39.6523 13.0282 39.4614C12.9671 39.2979 12.8677 39.1471 12.7364 39.0184C12.6086 38.8967 12.4512 38.8012 12.2757 38.7389C11.8878 38.6093 11.4584 38.6093 11.0706 38.7389C10.895 38.8012 10.7376 38.8967 10.6098 39.0184C10.4767 39.1463 10.3763 39.2973 10.3154 39.4614C10.1766 39.8471 10.1766 40.2603 10.3154 40.646C10.3769 40.8098 10.4772 40.9607 10.6098 41.089C10.7378 41.2099 10.8952 41.3046 11.0706 41.3661C11.4591 41.4924 11.8871 41.4924 12.2757 41.3661C12.451 41.3046 12.6084 41.2099 12.7364 41.089C12.8672 40.96 12.9664 40.8093 13.0282 40.646C13.1013 40.4551 13.1364 40.2548 13.1318 40.0537Z" fill="#AFB1B8"/>
<path d="M18.0013 40.6748L18.0585 40.8075C18.0803 40.7601 18.0994 40.7175 18.1212 40.6748C18.142 40.6303 18.1657 40.5868 18.1921 40.5445L19.5853 38.344C19.6126 38.3061 19.6371 38.2824 19.6644 38.2753C19.7015 38.2655 19.7402 38.2615 19.7789 38.2634H20.1906V41.8426H19.7026V39.2109C19.7026 39.1778 19.7026 39.1399 19.7026 39.0996C19.6999 39.0586 19.6999 39.0175 19.7026 38.9764L18.3012 41.2078C18.2834 41.2412 18.2549 41.2695 18.2191 41.2892C18.1833 41.309 18.1418 41.3194 18.0994 41.3191H18.0203C17.9779 41.3196 17.9362 41.3094 17.9003 41.2896C17.8645 41.2698 17.8361 41.2414 17.8186 41.2078L16.3763 38.9622C16.3763 39.0049 16.3763 39.0475 16.3763 39.0901C16.3763 39.1328 16.3763 39.1707 16.3763 39.2038V41.8355H15.9046V38.2634H16.3163C16.355 38.2615 16.3937 38.2655 16.4308 38.2753C16.4646 38.2898 16.4916 38.3141 16.5072 38.344L17.9304 40.5469C17.9583 40.5876 17.9821 40.6304 18.0013 40.6748Z" fill="#AFB1B8"/>
<path d="M23.2443 40.497V41.8377H22.699V38.2633H23.915C24.1445 38.2595 24.3734 38.2858 24.5939 38.3415C24.7704 38.3849 24.934 38.4609 25.0737 38.5641C25.1948 38.6609 25.2882 38.781 25.3464 38.9147C25.4107 39.0605 25.4422 39.2157 25.4391 39.3719C25.4415 39.5286 25.4072 39.6841 25.3382 39.829C25.2726 39.9661 25.1719 40.0885 25.0437 40.1867C24.9038 40.2943 24.7394 40.375 24.5612 40.4236C24.3489 40.4825 24.1269 40.5105 23.9041 40.5065L23.2443 40.497ZM23.2443 40.1133H23.9041C24.0474 40.1149 24.1901 40.0965 24.3267 40.0588C24.4394 40.0258 24.5432 39.9735 24.632 39.9048C24.714 39.8393 24.7774 39.7582 24.8174 39.6679C24.8621 39.5724 24.8843 39.4702 24.8829 39.3671C24.8892 39.2678 24.8706 39.1684 24.8282 39.0759C24.7858 38.9835 24.7207 38.9002 24.6375 38.8318C24.4292 38.6905 24.1676 38.622 23.9041 38.6399H23.2443V40.1133Z" fill="#AFB1B8"/>
<path d="M30.573 41.8425H30.1422C30.099 41.844 30.0566 41.8322 30.0223 41.8093C29.9913 41.787 29.967 41.7586 29.9514 41.7264L29.5806 40.8617H27.7184L27.334 41.7264C27.3198 41.758 27.2963 41.7858 27.2658 41.807C27.2312 41.8312 27.1876 41.8438 27.1431 41.8425H26.7123L28.3482 38.2629H28.9153L30.573 41.8425ZM27.8738 40.5135H29.4115L28.7626 39.0566C28.713 38.947 28.6721 38.8346 28.64 38.7202L28.5772 38.9073C28.5582 38.9642 28.5363 39.0163 28.5173 39.0589L27.8738 40.5135Z" fill="#AFB1B8"/>
<path d="M32.9287 38.2796C32.9613 38.2951 32.9893 38.317 33.0105 38.3436L35.3962 41.0418C35.3962 40.9992 35.3962 40.9565 35.3962 40.9163C35.3962 40.876 35.3962 40.8357 35.3962 40.7978V38.263H35.8842V41.8425H35.6116C35.5728 41.8436 35.5344 41.8362 35.4998 41.8212C35.4661 41.8041 35.4365 41.7816 35.4125 41.7549L33.0296 39.059C33.0322 39.1 33.0322 39.1411 33.0296 39.1822C33.0296 39.2224 33.0296 39.258 33.0296 39.2912V41.8425H32.5416V38.263H32.8306C32.8643 38.2622 32.8978 38.2679 32.9287 38.2796Z" fill="#AFB1B8"/>
<path d="M39.903 40.4188V41.8402H39.3577V40.4188L37.85 38.2631H38.338C38.3801 38.2609 38.4216 38.2718 38.4553 38.2938C38.4849 38.3168 38.5098 38.3441 38.5289 38.3744L39.4722 39.765C39.5104 39.8242 39.5431 39.8787 39.5704 39.9308C39.5977 39.9829 39.6195 40.0327 39.6386 40.0824L39.7094 39.9284C39.7359 39.8721 39.7669 39.8175 39.8021 39.765L40.7319 38.3649C40.7514 38.337 40.7753 38.3115 40.8028 38.2891C40.8351 38.2646 40.8771 38.2518 40.92 38.2536H41.4135L39.903 40.4188Z" fill="#AFB1B8"/>
<path d="M17.7313 32.256C17.9685 32.2821 18.2085 32.3034 18.4511 32.3223C22.13 30.8925 25.2421 28.5522 27.3986 25.5941C29.5551 22.6359 30.6602 19.1911 30.5758 15.6903L26.5215 12.1677C27.3458 15.895 26.9602 19.7481 25.4078 23.2958C23.8554 26.8435 21.1975 29.946 17.7313 32.256Z" fill="#AFB1B8"/>
<path d="M16.2836 32.0922L16.3927 32.1111C20.0966 29.8093 22.9205 26.5949 24.4992 22.8837C26.0779 19.1726 26.3388 15.1352 25.2483 11.2938L19.4736 6.27661C21.8093 10.4006 22.7495 15.016 22.1847 19.586C21.62 24.1561 19.5737 28.4929 16.2836 32.0922Z" fill="#AFB1B8"/>
<path d="M35.8679 19.8267C34.8868 23.6732 32.504 27.1424 29.0735 29.719C28.0716 30.4756 26.9909 31.1497 25.8453 31.7325C28.6388 31.0191 31.2064 29.7579 33.3502 28.0461C35.4939 26.3342 37.1566 24.2175 38.2099 21.8591L35.8679 19.8267Z" fill="#AFB1B8"/>
<path d="M34.949 19.2602L31.6146 16.363C31.5508 19.6661 30.47 22.8941 28.4845 25.7115C26.499 28.5289 23.6813 30.8328 20.3242 32.3838H20.3406C21.0887 32.3836 21.8362 32.3448 22.579 32.2678C25.7164 31.1552 28.488 29.385 30.6464 27.1153C32.8049 24.8456 34.283 22.147 34.949 19.2602Z" fill="#AFB1B8"/>
<path d="M16.7662 4.16091L12.7883 0.699951C9.23216 1.89391 6.17374 3.99283 4.01331 6.72203C1.85288 9.45122 0.691089 12.6835 0.679993 15.9959H0.679993C0.693321 19.656 2.1112 23.2077 4.70923 26.0888C7.30725 28.9699 10.937 31.016 15.024 31.903C18.6724 28.041 20.8085 23.2687 21.1218 18.2798C21.4351 13.2908 19.9094 8.34495 16.7662 4.16091Z" fill="#AFB1B8"/>
<path d="M44.14 18.7272C44.1256 14.3847 42.1338 10.2237 38.5996 7.15306C35.0655 4.08245 30.2763 2.35186 25.2783 2.33936C22.9687 2.33729 20.6788 2.70757 18.5248 3.43141L42.8804 24.5925C43.7143 22.722 44.1414 20.7332 44.14 18.7272Z" fill="#AFB1B8"/>
</svg>
